<svg id="Layer_1" enable-background="new 0 0 510 510" height="512" viewBox="0 0 510 510" width="512" xmlns="http://www.w3.org/2000/svg"><g><path id="XMLID_4400_" d="m267.39 110.026-12.39-13.777-22.081-38.809-28.65 42.516-33.295-39.956h-20.974v-30h35.026l16.701 20.043 33.346-49.483 19.928 35.025 11.6 27.389 29.427-54.927 27.369 43.991 8.862-15.638h17.741v15h-.259l-25.138 44.362-26.635-42.809z" fill="#fdd742"/><path id="XMLID_1808_" d="m332.259 29.4-8.862 15.638-27.369-43.991-29.427 54.927-11.601-20.39v60.666l12.39 21.776 30.578-57.073 26.635 42.809 25.138-44.362h10.259v-30z" fill="#fea730"/><path id="XMLID_4394_" d="m330 424.333-75 9.667h-90v-58h90l75 9.667z" fill="#3b6bab"/><path id="XMLID_1812_" d="m255 376h90v58h-90z" fill="#00467d"/><path id="XMLID_340_" d="m450 495-195 15h-210v-90h210l195 15z" fill="#65b2fe"/><path id="XMLID_1816_" d="m255 420h210v90h-210z" fill="#467ce8"/><path id="XMLID_1819_" d="m0 195h90v150h-90z" fill="#65b2fe"/><path id="XMLID_1822_" d="m420 195h90v150h-90z" fill="#467ce8"/><path id="XMLID_1825_" d="m105 75h30v90h-30z" fill="#3b6bab"/><path id="XMLID_1828_" d="m375 75h30v90h-30z" fill="#00467d"/><circle id="XMLID_1831_" cx="120" cy="45" fill="#65b2fe" r="45"/><circle id="XMLID_1834_" cx="390" cy="45" fill="#467ce8" r="45"/><path id="XMLID_338_" d="m435 375-180 15h-195v-240h195l180 15z" fill="#ecf4fe"/><path id="XMLID_1838_" d="m255 150h195v240h-195z" fill="#d4e7fd"/><path id="XMLID_3928_" d="m90 360h165l150-15v-150l-150-15h-165z" fill="#3b6bab"/><path id="XMLID_1842_" d="m255 180h165v180h-165z" fill="#00467d"/><path id="XMLID_231_" d="m135 225h60v90h-60z" fill="#fee682"/><path id="XMLID_3909_" d="m315 225h60v90h-60z" fill="#fdd742"/></g></svg>